<?xml version="1.0" encoding="utf-8"?>
<!-- Generator: Adobe Illustrator 22.1.0, SVG Export Plug-In . SVG Version: 6.00 Build 0)  -->
<svg version="1.1" id="Layer_1" xmlns="http://www.w3.org/2000/svg" xmlns:xlink="http://www.w3.org/1999/xlink" x="0px" y="0px"
	 viewBox="0 0 515.8 194.1" style="enable-background:new 0 0 515.8 194.1;" xml:space="preserve">
<style type="text/css">
	.st0{fill:#FFFFFF;}
	.st1{fill:#224285;}
	.st2{fill:#E11E27;}
	.st3{fill:#133D8D;}
	.st4{fill:none;stroke:#000000;stroke-width:0.213;}
	.st5{fill:#E31B23;}
</style>
<g>
	<path class="st0" d="M75.7,85.5H47.5l14.1-48.6L75.7,85.5z M108.9,109.8L76.8,12.5H46.4l-32.1,97.3H108.9z"/>
	<path class="st0" d="M193.7,47.1c-7.9-34.5-42.3-34.6-54.7-34.6c-14,0-24.2,0.3-24.2,0.3v96.9h24.3c0,0,34.4,1.9,49.4-21.4
		l-17.7-30.8c0.1,1.2,0.2,2.5,0.2,3.9c0,27.5-32,23.9-32,23.9V36.9c4.4,0,21.1-1.8,28.5,10.2H193.7z"/>
	<path class="st0" d="M231.6,98.4v11.4h24.7V55.3L231.6,98.4z M330,36.9V12.5H206.7v24.4h24.9v10.2h24.7V36.9H330z"/>
	<polygon class="st0" points="324.9,73.5 324.9,49.1 268.1,49.1 268.1,109.8 330.4,109.8 330.4,85.4 292.8,85.4 292.8,73.5 	"/>
	<path class="st0" d="M402.9,13.7c-5.5-2.1-11.4-1.2-17.6-1.2c-26.9,0-48.6,21.8-48.6,48.6c0,26.9,21.8,48.6,48.6,48.6
		c6.2,0,12.1-1.2,17.6-3.3v-28c-4.5,4.3-10.8,7-17.6,7c-13.9,0-25.2-10.9-25.2-24.3c0-13.4,11.3-24.3,25.2-24.3
		c6.9,0,13.1,0.6,17.6,4.9V13.7z"/>
	<polygon class="st0" points="477,12.4 477,49.2 439.8,49.2 439.8,12.4 415,12.4 415,109.7 439.8,109.7 439.8,73.5 477,73.5 
		477,109.7 501.5,109.7 501.5,12.4 	"/>
	<rect x="14.3" y="177.6" class="st0" width="487.2" height="4.2"/>
	<path class="st0" d="M185.4,55.7c0,0-2.8,0-1.5,2.4l27.7,51c0,0,1.3,2.4,2.7,0l27.7-51c0,0,1.3-2.4-1.5-2.4H185.4z"/>
	<rect x="14.3" y="125" class="st0" width="487.2" height="4.2"/>
	<path class="st0" d="M390.3,142.9c2.3,0,3.8,0.1,4.6,0.2c1,0.2,1.9,0.7,2.6,1.4c0.7,0.8,1,1.7,1,2.9c0,0.9-0.2,1.8-0.7,2.5
		c-0.5,0.7-1.2,1.2-2,1.6c-0.9,0.3-2.5,0.5-5.1,0.5h-3.5v-9H390.3z M387.2,169.3v-12h4.2c2.9,0,5.1-0.2,6.7-0.5
		c1.1-0.2,2.2-0.7,3.3-1.5c1.1-0.8,2-1.8,2.7-3.1s1.1-3,1.1-4.9c0-2.5-0.6-4.6-1.8-6.2c-1.2-1.6-2.8-2.6-4.6-3.1
		c-1.2-0.3-3.7-0.5-7.6-0.5h-10.3v31.8H387.2z M316,154.5c0,3.6,0.2,6.2,0.6,8.1c0.3,1.2,0.9,2.4,1.8,3.5c0.9,1.1,2.1,2,3.7,2.7
		c1.6,0.7,3.9,1,6.9,1c2.5,0,4.6-0.3,6.1-1c1.6-0.6,2.8-1.5,3.7-2.6c0.9-1.1,1.6-2.4,1.9-4c0.3-1.6,0.5-4.3,0.5-8.1v-16.7h-6.4v17.6
		c0,2.5-0.1,4.3-0.3,5.4c-0.2,1.1-0.7,2-1.7,2.7c-0.9,0.7-2.3,1.1-4.1,1.1c-1.8,0-3.2-0.4-4.2-1.2c-1-0.8-1.7-1.8-2-3.1
		c-0.2-0.8-0.2-2.6-0.2-5.3v-17.2H316V154.5z M256.5,145.2c1.6-1.8,3.7-2.7,6.4-2.7c2.6,0,4.8,0.9,6.4,2.7c1.6,1.8,2.4,4.5,2.4,8.1
		c0,3.7-0.8,6.4-2.5,8.3c-1.6,1.8-3.7,2.8-6.3,2.8c-2.6,0-4.7-0.9-6.3-2.8c-1.7-1.9-2.5-4.6-2.5-8.2
		C254.1,149.8,254.9,147,256.5,145.2 M251.7,165.6c2.8,2.9,6.5,4.3,11.3,4.3c4.7,0,8.4-1.4,11.2-4.3c2.8-2.9,4.2-6.9,4.2-12
		c0-5.2-1.4-9.2-4.2-12.1c-2.8-2.9-6.6-4.4-11.2-4.4c-2.6,0-4.9,0.4-6.8,1.3c-1.5,0.6-2.9,1.6-4.1,2.9c-1.3,1.3-2.2,2.7-3,4.4
		c-1,2.2-1.5,4.9-1.5,8.1C247.5,158.7,248.9,162.7,251.7,165.6 M190.5,142.9h5c2.6,0,4.2,0,4.7,0.1c1,0.2,1.8,0.6,2.4,1.2
		c0.6,0.7,0.9,1.5,0.9,2.6c0,1-0.2,1.7-0.6,2.4c-0.4,0.6-1,1.1-1.8,1.3c-0.8,0.3-2.7,0.4-5.8,0.4h-4.7V142.9z M190.5,169.3v-13.3
		h1.3c1.5,0,2.6,0.1,3.2,0.4c0.7,0.2,1.3,0.7,1.9,1.3c0.6,0.6,1.7,2.2,3.4,4.7l4.6,6.9h7.7l-3.9-6.2c-1.5-2.5-2.7-4.2-3.7-5.2
		c-0.9-1-2-1.9-3.4-2.7c2.8-0.4,4.9-1.4,6.3-2.9c1.4-1.6,2.1-3.5,2.1-5.9c0-1.9-0.5-3.5-1.4-5c-0.9-1.5-2.2-2.5-3.7-3
		c-1.5-0.6-4-0.9-7.4-0.9h-13.5v31.8H190.5z M138.9,157.7v4c-1,0.8-2.1,1.4-3.5,1.9c-1.3,0.5-2.7,0.8-4,0.8c-2.7,0-4.9-0.9-6.6-2.8
		c-1.7-1.9-2.5-4.7-2.5-8.5c0-3.5,0.8-6.1,2.5-7.9c1.7-1.8,3.9-2.7,6.7-2.7c1.8,0,3.4,0.5,4.6,1.4c1.2,0.9,2.1,2.1,2.5,3.7l6.4-1.2
		c-0.6-2.9-2.1-5.2-4.3-6.9c-2.2-1.7-5.3-2.5-9.2-2.5c-3,0-5.6,0.5-7.6,1.6c-2.7,1.4-4.7,3.3-6.1,5.9c-1.4,2.6-2.1,5.5-2.1,8.8
		c0,3,0.6,5.9,1.9,8.5c1.2,2.6,3.1,4.6,5.6,6c2.5,1.4,5.4,2.1,8.7,2.1c2.6,0,5.2-0.5,7.7-1.5c2.6-1,4.5-2.1,5.8-3.4v-12.7h-13.8v5.4
		H138.9z"/>
</g>
</svg>
